<?xml version="1.0" standalone="no"?><!DOCTYPE svg PUBLIC "-//W3C//DTD SVG 1.1//EN" "http://www.w3.org/Graphics/SVG/1.1/DTD/svg11.dtd"><svg t="1683626747699" class="icon" viewBox="0 0 1024 1024" version="1.1" xmlns="http://www.w3.org/2000/svg" p-id="23019" xmlns:xlink="http://www.w3.org/1999/xlink" width="30" height="30"><path d="M512 85.333333c128.085333 0 230.656 105.6 230.656 257.28 0 58.154667-34.986667 142.122667-77.013333 203.989334-24.746667 30.805333-13.994667 57.728 4.010666 67.328 3.754667 2.133333 77.994667 43.093333 100.949334 55.808l2.432 1.365333c39.125333 21.76 67.84 37.973333 87.04 49.365333 50.645333 33.877333 74.837333 59.008 78.592 103.253334V853.333333a85.333333 85.333333 0 0 1-85.333334 85.333334H170.666667a85.333333 85.333333 0 0 1-85.333334-85.333334v-29.610666c0-41.813333 24.064-67.2 77.610667-102.954667 36.650667-22.613333 143.786667-81.706667 189.098667-105.728 18.176-10.453333 28.629333-36.138667 1.962666-70.101333-39.253333-58.069333-73.813333-143.104-73.813333-202.368C280.192 189.525333 381.866667 85.333333 512 85.333333z m0 85.333334c-84.181333 0-146.474667 67.498667-146.474667 171.946666 0 36.266667 25.173333 103.466667 57.856 152.533334 51.669333 68.693333 39.637333 154.538667-31.402666 195.328-53.077333 28.117333-153.685333 84.096-181.632 101.248-34.261333 22.869333-39.168 27.861333-39.68 31.36V853.333333h682.666666v-24.874666c-1.493333-8.490667-7.765333-14.933333-38.784-35.797334a3817.770667 3817.770667 0 0 0-82.944-46.933333l-2.432-1.365333-47.018666-26.026667a7185.066667 7185.066667 0 0 1-52.565334-29.098667c-69.461333-36.949333-84.352-125.44-33.066666-192.768 35.242667-52.608 60.8-118.869333 60.8-153.898666C657.322667 239.573333 594.048 170.666667 512 170.666667z m426.709333 384c21.845333 0 39.893333 16.341333 42.325334 37.674666L981.333333 597.333333c0 23.552-18.901333 42.666667-42.624 42.666667h-42.752A42.538667 42.538667 0 0 1 853.333333 597.333333c0-23.552 18.901333-42.666667 42.624-42.666666h42.752z m-0.426666-170.666667c22.058667 0 40.277333 16.341333 42.752 37.674667L981.333333 426.666667a42.666667 42.666667 0 0 1-43.093333 42.666666h-84.48a42.666667 42.666667 0 1 1 0-85.333333h84.48zM938.666667 213.333333c21.845333 0 39.893333 16.341333 42.325333 37.674667L981.333333 256c0 23.552-18.944 42.666667-42.666666 42.666667h-128c-23.552 0-42.666667-18.944-42.666667-42.666667 0-23.552 18.944-42.666667 42.666667-42.666667h128z" fill="#707070" p-id="23020"></path></svg>