<?xml version="1.0" standalone="no"?><!DOCTYPE svg PUBLIC "-//W3C//DTD SVG 1.1//EN" "http://www.w3.org/Graphics/SVG/1.1/DTD/svg11.dtd"><svg t="1683626414904" class="icon" viewBox="0 0 1024 1024" version="1.1" xmlns="http://www.w3.org/2000/svg" p-id="16713" xmlns:xlink="http://www.w3.org/1999/xlink" width="30" height="30"><path d="M375.466667 810.666667c46.933333 25.6 102.4 42.666667 157.866666 42.666666 174.933333 0 320-145.066667 320-320S708.266667 213.333333 533.333333 213.333333 213.333333 358.4 213.333333 533.333333c0 59.733333 17.066667 110.933333 42.666667 157.866667V810.666667h119.466667z m-12.8 42.666666H213.333333v-149.333333c-25.6-51.2-42.666667-110.933333-42.666666-170.666667C170.666667 332.8 332.8 170.666667 533.333333 170.666667S896 332.8 896 533.333333 733.866667 896 533.333333 896c-59.733333 0-119.466667-17.066667-170.666666-42.666667z" fill="#444444" p-id="16714"></path></svg>