<?xml version="1.0" standalone="no"?><!DOCTYPE svg PUBLIC "-//W3C//DTD SVG 1.1//EN" "http://www.w3.org/Graphics/SVG/1.1/DTD/svg11.dtd"><svg t="1683684432491" class="icon" viewBox="0 0 1024 1024" version="1.1" xmlns="http://www.w3.org/2000/svg" p-id="68326" xmlns:xlink="http://www.w3.org/1999/xlink" width="30" height="30"><path d="M777.1 764.9c-27.4-48.5-65.5-75.2-92.6-80.1-18-3.3-43.4 12.3-43.4 12.3l-57.3 32.8s-19.3 17-37.1 13.6c-21.5-4-42.3-28.6-42.3-28.6s-65.8-73.9-110-153.6c-43.1-77.7-64.6-161.1-64.6-161.1s-4.3-18.8 1.9-32.5C339 351.5 357 340 357 340l60.3-34.5s23.4-11.6 29.6-30.4c0.2-0.7 10-31.7 3.3-68.5-2-10.7-7-43.1-23.2-71-15.6-26.9-42.2-49.3-54.9-57.9-20.2-13.7-47.8-13.6-53-13.7-20.7-0.4-47 24.1-47 24.1s-79 66.6-107.8 155.9c-31.6 97.7 5.2 245.6 81.6 386.3 58.3 107.4 143.2 204.1 143.2 204.1s26.7 32.2 56.5 57.2c12.5 10.5 81.1 72 191.2 68.2C703 957.5 776 921.6 776 921.6s26.8-10.9 30.2-28.2c4.9-24.7-6.6-88.5-29.1-128.5zM306.6 124.2c8.6-8.6 32.7-16.3 32.7-16.3s30 18.9 48.1 50.7c18.7 32.9 25.5 78.7 25.5 78.7s-7 12-17.1 15.9c-11 4.3-25.2 0.5-25.2 0.5L301.1 146s-4.9-11.4 5.5-21.8z m451.7 736.3c-4.4 8.8-21 10.7-21 10.7s-40.5-12.1-63.1-38c-25.6-29.1-33.7-72.5-33.7-72.5s1.6-17.8 13.2-27.9c18.3-16 44.7-3.9 74.4 35.2 20.5 27.1 26.9 67.6 26.9 67.6s7.8 16 3.3 24.9z" fill="#777777" p-id="68327"></path><path d="M732.8 287c-27 0-40.6-13-40.6-39.1s13.5-39.2 40.6-39.2c27 0 40.6 13.1 40.6 39.2S759.9 287 732.8 287zM629.4 287c-27 0-40.6-13-40.6-39.1s13.5-39.2 40.6-39.2c27 0 40.6 13.1 40.6 39.2S656.5 287 629.4 287zM677.4 492.3c-74.5 0-111.7-32.4-111.7-97.1 0-64.7 37.2-97.1 111.7-97.1s111.7 32.4 111.7 97.1c0 64.8-37.2 97.1-111.7 97.1z" fill="#777777" p-id="68328"></path><path d="M759.8 380.6l69.2-56.5s14.3-10.7 24.3-7.4c9.3 3.1 17.7 20.2 17.7 20.2v120.7s-7 18.3-18.8 22.1c-10 3.2-28.5-8-28.5-8l-63.8-62.9v-28.2z" fill="#777777" p-id="68329"></path></svg>