<?xml version="1.0" standalone="no"?><!DOCTYPE svg PUBLIC "-//W3C//DTD SVG 1.1//EN" "http://www.w3.org/Graphics/SVG/1.1/DTD/svg11.dtd"><svg t="1683686563833" class="icon" viewBox="0 0 1024 1024" version="1.1" xmlns="http://www.w3.org/2000/svg" p-id="83016" xmlns:xlink="http://www.w3.org/1999/xlink" width="30" height="30"><path d="M979.5072 873.1136c-12.3904 0-24.832-4.9664-37.0688-14.7456l-176.0256-140.8512c-28.2624-22.6304-49.6128-66.9696-49.6128-103.168v-153.6c0-36.1984 21.2992-80.5376 49.6128-103.168l176.0256-140.8512c12.2368-9.7792 24.6784-14.7456 37.0688-14.7456 22.1696 0 44.4928 16.6912 44.4928 53.9136v563.2c0 14.2336-3.2768 26.2144-9.728 35.5328a41.728 41.728 0 0 1-34.7648 18.3808zM972.8 258.048l-174.4384 139.52c-15.872 12.6976-30.3616 42.8544-30.3616 63.1808v153.6c0 20.3776 14.4896 50.4832 30.3616 63.1808L972.8 817.0496V257.9968zM588.8 870.4h-512C34.4576 870.4 0 835.9424 0 793.6v-512C0 239.2576 34.4576 204.8 76.8 204.8h512c42.3424 0 76.8 34.4576 76.8 76.8v512c0 42.3424-34.4576 76.8-76.8 76.8zM76.8 256a25.6 25.6 0 0 0-25.6 25.6v512a25.6 25.6 0 0 0 25.6 25.6h512a25.6 25.6 0 0 0 25.6-25.6v-512a25.6 25.6 0 0 0-25.6-25.6h-512z" fill="#777777" p-id="83017"></path></svg>